mtllib prt0001.mtl

v  -0.154456 -0.040172 -0.250000
v  -0.154456 -0.040172 -0.250000
v  -0.154456 -0.040172 -0.250000
v  0.154456 -0.040172 -0.250000
v  0.154456 -0.040172 -0.250000
v  0.154456 -0.040172 -0.250000
v  0.186894 -0.021782 -0.250000
v  0.186894 -0.021782 -0.250000
v  0.217184 -0.000000 -0.250000
v  0.217184 -0.000000 -0.250000
v  0.217184 -0.000000 -0.250000
v  0.212037 0.050464 -0.250000
v  0.212037 0.050464 -0.250000
v  0.196815 0.098840 -0.250000
v  0.196815 0.098840 -0.250000
v  0.196815 0.098840 -0.250000
v  -0.196815 0.098840 -0.250000
v  -0.196815 0.098840 -0.250000
v  -0.196815 0.098840 -0.250000
v  -0.212037 0.050464 -0.250000
v  -0.212037 0.050464 -0.250000
v  -0.217184 0.000000 -0.250000
v  -0.217184 0.000000 -0.250000
v  -0.217184 0.000000 -0.250000
v  -0.186894 -0.021782 -0.250000
v  -0.186894 -0.021782 -0.250000
v  -0.132735 0.187330 0.250000
v  -0.132735 0.187330 0.250000
v  -0.132735 0.187330 0.250000
v  0.132735 0.187330 0.250000
v  0.132735 0.187330 0.250000
v  0.132735 0.187330 0.250000
v  0.168411 0.148349 0.250000
v  0.168411 0.148349 0.250000
v  0.195091 0.102751 0.250000
v  0.195091 0.102751 0.250000
v  0.211595 0.052560 0.250000
v  0.211595 0.052560 0.250000
v  0.217184 -0.000000 0.250000
v  0.217184 -0.000000 0.250000
v  0.217184 -0.000000 0.250000
v  0.151223 -0.041760 0.250000
v  0.151223 -0.041760 0.250000
v  0.077582 -0.067698 0.250000
v  0.077582 -0.067698 0.250000
v  -0.000000 -0.076493 0.250000
v  -0.000000 -0.076493 0.250000
v  -0.077582 -0.067698 0.250000
v  -0.077582 -0.067698 0.250000
v  -0.151223 -0.041760 0.250000
v  -0.151223 -0.041760 0.250000
v  -0.217184 0.000000 0.250000
v  -0.217184 0.000000 0.250000
v  -0.217184 0.000000 0.250000
v  -0.211595 0.052560 0.250000
v  -0.211595 0.052560 0.250000
v  -0.195091 0.102751 0.250000
v  -0.195091 0.102751 0.250000
v  -0.168411 0.148349 0.250000
v  -0.168411 0.148349 0.250000
v  0.000000 0.247837 -0.079412
v  0.000000 0.247837 -0.079412
v  0.000000 0.247837 -0.079412
v  0.000000 0.247837 0.225592
v  0.000000 0.247837 0.225592
v  0.000000 0.247837 0.225592
v  -0.009751 0.246349 0.226894
v  -0.009751 0.246349 0.226894
v  -0.019495 0.244466 0.228542
v  -0.019495 0.244466 0.228542
v  -0.019495 0.244466 0.228542
v  -0.034377 0.240801 0.232818
v  -0.034377 0.240801 0.232818
v  -0.049370 0.236105 0.238297
v  -0.049370 0.236105 0.238297
v  -0.049370 0.236105 0.238297
v  -0.060681 0.231858 0.240583
v  -0.060681 0.231858 0.240583
v  -0.071825 0.227047 0.243174
v  -0.071825 0.227047 0.243174
v  -0.071825 0.227047 0.243174
v  -0.086784 0.219536 0.245460
v  -0.086784 0.219536 0.245460
v  -0.101237 0.211021 0.248052
v  -0.101237 0.211021 0.248052
v  -0.101237 0.211021 0.248052
v  -0.117449 0.199801 0.248974
v  -0.117449 0.199801 0.248974
v  -0.185903 0.121086 -0.243256
v  -0.185903 0.121086 -0.243256
v  -0.172913 0.142040 -0.236903
v  -0.172913 0.142040 -0.236903
v  -0.172913 0.142040 -0.236903
v  -0.163046 0.155363 -0.227541
v  -0.163046 0.155363 -0.227541
v  -0.152484 0.167821 -0.218787
v  -0.152484 0.167821 -0.218787
v  -0.152484 0.167821 -0.218787
v  -0.143167 0.177566 -0.206154
v  -0.143167 0.177566 -0.206154
v  -0.133520 0.186634 -0.194400
v  -0.133520 0.186634 -0.194400
v  -0.133520 0.186634 -0.194400
v  -0.112836 0.203189 -0.169132
v  -0.112836 0.203189 -0.169132
v  -0.091758 0.216752 -0.148430
v  -0.091758 0.216752 -0.148430
v  -0.091758 0.216752 -0.148430
v  -0.044649 0.237694 -0.101932
v  -0.044649 0.237694 -0.101932
v  -0.154959 -0.039921 -0.247742
v  -0.154959 -0.039921 -0.247742
v  -0.154959 -0.039921 -0.247742
v  -0.154707 -0.040047 -0.248872
v  -0.154707 -0.040047 -0.248872
v  0.154707 -0.040047 -0.248872
v  0.154707 -0.040047 -0.248872
v  0.154959 -0.039921 -0.247742
v  0.154959 -0.039921 -0.247742
v  0.154959 -0.039921 -0.247742
v  0.136900 -0.048309 -0.243769
v  0.136900 -0.048309 -0.243769
v  0.118483 -0.055611 -0.240310
v  0.118483 -0.055611 -0.240310
v  0.118483 -0.055611 -0.240310
v  0.093552 -0.063628 -0.233236
v  0.093552 -0.063628 -0.233236
v  0.068534 -0.069650 -0.227923
v  0.068534 -0.069650 -0.227923
v  0.068534 -0.069650 -0.227923
v  0.032528 -0.074967 -0.207394
v  0.032528 -0.074967 -0.207394
v  -0.000000 -0.076496 -0.201491
v  -0.000000 -0.076496 -0.201491
v  -0.032528 -0.074967 -0.207395
v  -0.032528 -0.074967 -0.207395
v  -0.068534 -0.069650 -0.227923
v  -0.068534 -0.069650 -0.227923
v  -0.068534 -0.069650 -0.227923
v  -0.093552 -0.063628 -0.233236
v  -0.093552 -0.063628 -0.233236
v  -0.118483 -0.055611 -0.240310
v  -0.118483 -0.055611 -0.240310
v  -0.118483 -0.055611 -0.240310
v  -0.136900 -0.048309 -0.243769
v  -0.136900 -0.048309 -0.243769
v  0.091758 0.216752 -0.148430
v  0.091758 0.216752 -0.148430
v  0.091758 0.216752 -0.148430
v  0.112836 0.203189 -0.169132
v  0.112836 0.203189 -0.169132
v  0.133520 0.186634 -0.194400
v  0.133520 0.186634 -0.194400
v  0.133520 0.186634 -0.194400
v  0.143167 0.177566 -0.206154
v  0.143167 0.177566 -0.206154
v  0.152484 0.167821 -0.218787
v  0.152484 0.167821 -0.218787
v  0.152484 0.167821 -0.218787
v  0.163046 0.155363 -0.227541
v  0.163046 0.155363 -0.227541
v  0.172913 0.142040 -0.236903
v  0.172913 0.142040 -0.236903
v  0.172913 0.142040 -0.236903
v  0.185903 0.121086 -0.243256
v  0.185903 0.121086 -0.243256
v  0.117449 0.199801 0.248974
v  0.117449 0.199801 0.248974
v  0.101237 0.211021 0.248052
v  0.101237 0.211021 0.248052
v  0.101237 0.211021 0.248052
v  0.086784 0.219536 0.245460
v  0.086784 0.219536 0.245460
v  0.071825 0.227047 0.243174
v  0.071825 0.227047 0.243174
v  0.071825 0.227047 0.243174
v  0.060681 0.231858 0.240583
v  0.060681 0.231858 0.240583
v  0.049370 0.236105 0.238297
v  0.049370 0.236105 0.238297
v  0.049370 0.236105 0.238297
v  0.034377 0.240801 0.232818
v  0.034377 0.240801 0.232818
v  0.019495 0.244466 0.228542
v  0.019495 0.244466 0.228542
v  0.019495 0.244466 0.228542
v  0.009751 0.246349 0.226894
v  0.009751 0.246349 0.226894
v  0.044649 0.237694 -0.101932
v  0.044649 0.237694 -0.101932

vt  0.036324 0.000000 0.000000
vt  0.036324 0.000000 0.000000
vt  0.036324 0.000000 0.000000
vt  0.036324 0.000000 0.000000
vt  0.036324 0.000000 0.000000
vt  0.036324 0.000000 0.000000
vt  0.054714 0.000000 0.000000
vt  0.054714 0.000000 0.000000
vt  0.076496 0.000000 0.000000
vt  0.076496 0.000000 0.000000
vt  0.076496 0.000000 0.000000
vt  0.126960 0.000000 0.000000
vt  0.126960 0.000000 0.000000
vt  0.175336 0.000000 0.000000
vt  0.175336 0.000000 0.000000
vt  0.175336 0.000000 0.000000
vt  0.175336 0.000000 0.000000
vt  0.175336 0.000000 0.000000
vt  0.175336 0.000000 0.000000
vt  0.126960 0.000000 0.000000
vt  0.126960 0.000000 0.000000
vt  0.076496 0.000000 0.000000
vt  0.076496 0.000000 0.000000
vt  0.076496 0.000000 0.000000
vt  0.054714 0.000000 0.000000
vt  0.054714 0.000000 0.000000
vt  0.263826 0.500000 0.000000
vt  0.263826 0.500000 0.000000
vt  0.263826 0.500000 0.000000
vt  0.263826 0.500000 0.000000
vt  0.263826 0.500000 0.000000
vt  0.263826 0.500000 0.000000
vt  0.224845 0.500000 0.000000
vt  0.224845 0.500000 0.000000
vt  0.179246 0.500000 0.000000
vt  0.179246 0.500000 0.000000
vt  0.129056 0.500000 0.000000
vt  0.129056 0.500000 0.000000
vt  0.076496 0.500000 0.000000
vt  0.076496 0.500000 0.000000
vt  0.076496 0.500000 0.000000
vt  0.034736 0.500000 0.000000
vt  0.034736 0.500000 0.000000
vt  0.008798 0.500000 0.000000
vt  0.008798 0.500000 0.000000
vt  0.000003 0.500000 0.000000
vt  0.000003 0.500000 0.000000
vt  0.008798 0.500000 0.000000
vt  0.008798 0.500000 0.000000
vt  0.034736 0.500000 0.000000
vt  0.034736 0.500000 0.000000
vt  0.076496 0.500000 0.000000
vt  0.076496 0.500000 0.000000
vt  0.076496 0.500000 0.000000
vt  0.129056 0.500000 0.000000
vt  0.129056 0.500000 0.000000
vt  0.179246 0.500000 0.000000
vt  0.179246 0.500000 0.000000
vt  0.224845 0.500000 0.000000
vt  0.224845 0.500000 0.000000
vt  0.324333 0.170588 0.000000
vt  0.324333 0.170588 0.000000
vt  0.324333 0.170588 0.000000
vt  0.324333 0.475592 0.000000
vt  0.324333 0.475592 0.000000
vt  0.324333 0.475592 0.000000
vt  0.322845 0.476894 0.000000
vt  0.322845 0.476894 0.000000
vt  0.320962 0.478542 0.000000
vt  0.320962 0.478542 0.000000
vt  0.320962 0.478542 0.000000
vt  0.317297 0.482818 0.000000
vt  0.317297 0.482818 0.000000
vt  0.312600 0.488297 0.000000
vt  0.312600 0.488297 0.000000
vt  0.312600 0.488297 0.000000
vt  0.308354 0.490583 0.000000
vt  0.308354 0.490583 0.000000
vt  0.303542 0.493174 0.000000
vt  0.303542 0.493174 0.000000
vt  0.303542 0.493174 0.000000
vt  0.296031 0.495460 0.000000
vt  0.296031 0.495460 0.000000
vt  0.287516 0.498052 0.000000
vt  0.287516 0.498052 0.000000
vt  0.287516 0.498052 0.000000
vt  0.276297 0.498974 0.000000
vt  0.276297 0.498974 0.000000
vt  0.197582 0.006744 0.000000
vt  0.197582 0.006744 0.000000
vt  0.218536 0.013097 0.000000
vt  0.218536 0.013097 0.000000
vt  0.218536 0.013097 0.000000
vt  0.231859 0.022459 0.000000
vt  0.231859 0.022459 0.000000
vt  0.244316 0.031213 0.000000
vt  0.244316 0.031213 0.000000
vt  0.244316 0.031213 0.000000
vt  0.254062 0.043846 0.000000
vt  0.254062 0.043846 0.000000
vt  0.263129 0.055600 0.000000
vt  0.263129 0.055600 0.000000
vt  0.263129 0.055600 0.000000
vt  0.279684 0.080868 0.000000
vt  0.279684 0.080868 0.000000
vt  0.293247 0.101570 0.000000
vt  0.293247 0.101570 0.000000
vt  0.293247 0.101570 0.000000
vt  0.314190 0.148068 0.000000
vt  0.314190 0.148068 0.000000
vt  0.036575 0.002258 0.000000
vt  0.036575 0.002258 0.000000
vt  0.036575 0.002258 0.000000
vt  0.036449 0.001128 0.000000
vt  0.036449 0.001128 0.000000
vt  0.036449 0.001128 0.000000
vt  0.036449 0.001128 0.000000
vt  0.036575 0.002258 0.000000
vt  0.036575 0.002258 0.000000
vt  0.036575 0.002258 0.000000
vt  0.028187 0.006231 0.000000
vt  0.028187 0.006231 0.000000
vt  0.020884 0.009690 0.000000
vt  0.020884 0.009690 0.000000
vt  0.020884 0.009690 0.000000
vt  0.012867 0.016764 0.000000
vt  0.012867 0.016764 0.000000
vt  0.006846 0.022077 0.000000
vt  0.006846 0.022077 0.000000
vt  0.006846 0.022077 0.000000
vt  0.001529 0.042606 0.000000
vt  0.001529 0.042606 0.000000
vt  0.000000 0.048509 0.000000
vt  0.000000 0.048509 0.000000
vt  0.001529 0.042605 0.000000
vt  0.001529 0.042605 0.000000
vt  0.006846 0.022077 0.000000
vt  0.006846 0.022077 0.000000
vt  0.006846 0.022077 0.000000
vt  0.012867 0.016764 0.000000
vt  0.012867 0.016764 0.000000
vt  0.020884 0.009690 0.000000
vt  0.020884 0.009690 0.000000
vt  0.020884 0.009690 0.000000
vt  0.028187 0.006231 0.000000
vt  0.028187 0.006231 0.000000
vt  0.293247 0.101570 0.000000
vt  0.293247 0.101570 0.000000
vt  0.293247 0.101570 0.000000
vt  0.279684 0.080868 0.000000
vt  0.279684 0.080868 0.000000
vt  0.263129 0.055600 0.000000
vt  0.263129 0.055600 0.000000
vt  0.263129 0.055600 0.000000
vt  0.254062 0.043846 0.000000
vt  0.254062 0.043846 0.000000
vt  0.244316 0.031213 0.000000
vt  0.244316 0.031213 0.000000
vt  0.244316 0.031213 0.000000
vt  0.231859 0.022459 0.000000
vt  0.231859 0.022459 0.000000
vt  0.218536 0.013097 0.000000
vt  0.218536 0.013097 0.000000
vt  0.218536 0.013097 0.000000
vt  0.197582 0.006744 0.000000
vt  0.197582 0.006744 0.000000
vt  0.276297 0.498974 0.000000
vt  0.276297 0.498974 0.000000
vt  0.287516 0.498052 0.000000
vt  0.287516 0.498052 0.000000
vt  0.287516 0.498052 0.000000
vt  0.296031 0.495460 0.000000
vt  0.296031 0.495460 0.000000
vt  0.303542 0.493174 0.000000
vt  0.303542 0.493174 0.000000
vt  0.303542 0.493174 0.000000
vt  0.308354 0.490583 0.000000
vt  0.308354 0.490583 0.000000
vt  0.312600 0.488297 0.000000
vt  0.312600 0.488297 0.000000
vt  0.312600 0.488297 0.000000
vt  0.317297 0.482818 0.000000
vt  0.317297 0.482818 0.000000
vt  0.320962 0.478542 0.000000
vt  0.320962 0.478542 0.000000
vt  0.320962 0.478542 0.000000
vt  0.322845 0.476894 0.000000
vt  0.322845 0.476894 0.000000
vt  0.314190 0.148068 0.000000
vt  0.314190 0.148068 0.000000

vn  0.000000 0.000000 -1.000000
vn  -0.445678 -0.895193 0.000000
vn  0.000000 -0.993884 0.110432
vn  0.000000 0.000000 -1.000000
vn  0.445678 -0.895193 0.000000
vn  0.000000 -0.993884 0.110432
vn  0.000000 0.000000 -1.000000
vn  0.539277 -0.842128 0.000000
vn  0.000000 0.000000 -1.000000
vn  0.626679 -0.779278 0.000000
vn  1.000000 0.000000 0.000000
vn  0.000000 0.000000 -1.000000
vn  0.979415 0.201857 0.000000
vn  0.000000 0.000000 -1.000000
vn  0.918526 0.395360 0.000000
vn  0.000000 0.290128 -0.956988
vn  0.000000 0.000000 -1.000000
vn  -0.918526 0.395360 0.000000
vn  0.000000 0.290128 -0.956988
vn  0.000000 0.000000 -1.000000
vn  -0.979415 0.201857 0.000000
vn  0.000000 0.000000 -1.000000
vn  -1.000000 0.000000 0.000000
vn  -0.626679 -0.779278 0.000000
vn  0.000000 0.000000 -1.000000
vn  -0.539277 -0.842128 0.000000
vn  0.000000 0.000000 1.000000
vn  -0.662206 0.749322 0.000000
vn  0.000000 0.081970 0.996635
vn  0.000000 0.000000 1.000000
vn  0.662206 0.749322 0.000000
vn  0.000000 0.081970 0.996635
vn  0.000000 0.000000 1.000000
vn  0.804894 0.593419 0.000000
vn  0.000000 0.000000 1.000000
vn  0.911633 0.411004 0.000000
vn  0.000000 0.000000 1.000000
vn  0.977656 0.210213 0.000000
vn  0.000000 0.000000 1.000000
vn  0.626679 -0.779278 0.000000
vn  1.000000 0.000000 0.000000
vn  0.000000 0.000000 1.000000
vn  0.436336 -0.899784 0.000000
vn  0.000000 0.000000 1.000000
vn  0.223848 -0.974624 0.000000
vn  0.000000 0.000000 1.000000
vn  -0.000000 -1.000000 0.000000
vn  0.000000 0.000000 1.000000
vn  -0.223848 -0.974624 0.000000
vn  0.000000 0.000000 1.000000
vn  -0.436336 -0.899784 0.000000
vn  0.000000 0.000000 1.000000
vn  -1.000000 0.000000 0.000000
vn  -0.626679 -0.779278 0.000000
vn  0.000000 0.000000 1.000000
vn  -0.977656 0.210213 0.000000
vn  0.000000 0.000000 1.000000
vn  -0.911633 0.411004 0.000000
vn  0.000000 0.000000 1.000000
vn  -0.804894 0.593419 0.000000
vn  -0.131265 0.991347 0.000000
vn  0.131265 0.991347 0.000000
vn  0.000000 0.911787 -0.410662
vn  -0.131265 0.991347 0.000000
vn  0.131265 0.991347 0.000000
vn  0.000000 0.658505 0.752577
vn  -0.170268 0.985398 0.000000
vn  0.000000 0.658505 0.752577
vn  -0.209244 0.977864 0.000000
vn  0.000000 0.759257 0.650791
vn  0.000000 0.658505 0.752577
vn  -0.268772 0.963204 0.000000
vn  0.000000 0.759257 0.650791
vn  -0.328746 0.944418 0.000000
vn  0.000000 0.474100 0.880471
vn  0.000000 0.759257 0.650791
vn  -0.373989 0.927433 0.000000
vn  0.000000 0.474100 0.880471
vn  -0.418567 0.908186 0.000000
vn  0.000000 0.291162 0.956674
vn  0.000000 0.474100 0.880471
vn  -0.478399 0.878142 0.000000
vn  0.000000 0.291162 0.956674
vn  -0.536213 0.844083 0.000000
vn  0.000000 0.081970 0.996635
vn  0.000000 0.291162 0.956674
vn  -0.601060 0.799204 0.000000
vn  0.000000 0.081970 0.996635
vn  -0.874877 0.484346 0.000000
vn  0.000000 0.290128 -0.956988
vn  -0.822918 0.568160 0.000000
vn  0.000000 0.574946 -0.818192
vn  0.000000 0.290128 -0.956988
vn  -0.783451 0.621454 0.000000
vn  0.000000 0.574946 -0.818192
vn  -0.741201 0.671283 0.000000
vn  0.000000 0.791782 -0.610803
vn  0.000000 0.574946 -0.818192
vn  -0.703935 0.710265 0.000000
vn  0.000000 0.791782 -0.610803
vn  -0.665347 0.746535 0.000000
vn  0.000000 0.836461 -0.548026
vn  0.000000 0.791782 -0.610803
vn  -0.582606 0.812755 0.000000
vn  0.000000 0.836461 -0.548026
vn  -0.498296 0.867007 0.000000
vn  0.000000 0.911787 -0.410662
vn  0.000000 0.836461 -0.548026
vn  -0.309861 0.950782 0.000000
vn  0.000000 0.911787 -0.410662
vn  -0.447129 -0.894469 0.000000
vn  0.000000 -0.993884 0.110432
vn  0.000000 -0.428086 -0.903738
vn  -0.446404 -0.894832 0.000000
vn  0.000000 -0.993884 0.110432
vn  0.446404 -0.894832 0.000000
vn  0.000000 -0.993884 0.110432
vn  0.447129 -0.894469 0.000000
vn  0.000000 -0.993884 0.110432
vn  0.000000 -0.428086 -0.903738
vn  0.395021 -0.918672 0.000000
vn  0.000000 -0.428086 -0.903738
vn  0.341881 -0.939743 0.000000
vn  0.000000 -0.428086 -0.903738
vn  0.000000 -0.661622 -0.749838
vn  0.269943 -0.962876 0.000000
vn  0.000000 -0.661622 -0.749838
vn  0.197754 -0.980252 0.000000
vn  0.000000 -0.661622 -0.749838
vn  0.000000 -0.968060 -0.250718
vn  0.093855 -0.995586 0.000000
vn  0.000000 -0.968060 -0.250718
vn  -0.000001 -1.000000 0.000000
vn  0.000000 -0.968060 -0.250718
vn  -0.093857 -0.995586 0.000000
vn  0.000000 -0.968060 -0.250718
vn  -0.197754 -0.980252 0.000000
vn  0.000000 -0.661622 -0.749838
vn  0.000000 -0.968060 -0.250718
vn  -0.269943 -0.962876 0.000000
vn  0.000000 -0.661622 -0.749838
vn  -0.341881 -0.939743 0.000000
vn  0.000000 -0.428086 -0.903738
vn  0.000000 -0.661622 -0.749838
vn  -0.395021 -0.918672 0.000000
vn  0.000000 -0.428086 -0.903738
vn  0.498296 0.867007 0.000000
vn  0.000000 0.911787 -0.410662
vn  0.000000 0.836461 -0.548026
vn  0.582606 0.812755 0.000000
vn  0.000000 0.836461 -0.548026
vn  0.665347 0.746535 0.000000
vn  0.000000 0.836461 -0.548026
vn  0.000000 0.791782 -0.610803
vn  0.703935 0.710265 0.000000
vn  0.000000 0.791782 -0.610803
vn  0.741201 0.671283 0.000000
vn  0.000000 0.791782 -0.610803
vn  0.000000 0.574946 -0.818192
vn  0.783451 0.621454 0.000000
vn  0.000000 0.574946 -0.818192
vn  0.822918 0.568160 0.000000
vn  0.000000 0.574946 -0.818192
vn  0.000000 0.290128 -0.956988
vn  0.874877 0.484346 0.000000
vn  0.000000 0.290128 -0.956988
vn  0.601060 0.799204 0.000000
vn  0.000000 0.081970 0.996635
vn  0.536213 0.844083 0.000000
vn  0.000000 0.081970 0.996635
vn  0.000000 0.291162 0.956674
vn  0.478399 0.878142 0.000000
vn  0.000000 0.291162 0.956674
vn  0.418567 0.908186 0.000000
vn  0.000000 0.291162 0.956674
vn  0.000000 0.474100 0.880471
vn  0.373989 0.927433 0.000000
vn  0.000000 0.474100 0.880471
vn  0.328746 0.944418 0.000000
vn  0.000000 0.474100 0.880471
vn  0.000000 0.759257 0.650791
vn  0.268772 0.963204 0.000000
vn  0.000000 0.759257 0.650791
vn  0.209244 0.977864 0.000000
vn  0.000000 0.759257 0.650791
vn  0.000000 0.658505 0.752577
vn  0.170268 0.985398 0.000000
vn  0.000000 0.658505 0.752577
vn  0.309861 0.950782 0.000000
vn  0.000000 0.911787 -0.410662


g 0
g 1
usemtl DEFAULT_MTL
f 14/14/14  4/4/4  1/1/1
f 115/115/115  3/3/3  6/6/6
f 25/25/25  14/14/14  1/1/1
f 114/114/114  26/26/26  2/2/2
f 14/14/14  7/7/7  4/4/4
f 116/116/116  5/5/5  8/8/8
f 115/115/115  6/6/6  112/112/112
f 117/117/117  112/112/112  6/6/6
f 12/12/12  9/9/9  7/7/7
f 43/43/43  8/8/8  10/10/10
f 14/14/14  12/12/12  7/7/7
f 118/118/118  8/8/8  43/43/43
f 118/118/118  116/116/116  8/8/8
f 41/41/41  11/11/11  13/13/13
f 43/43/43  10/10/10  40/40/40
f 38/38/38  13/13/13  15/15/15
f 41/41/41  13/13/13  38/38/38
f 25/25/25  17/17/17  14/14/14
f 166/166/166  16/16/16  19/19/19
f 38/38/38  15/15/15  36/36/36
f 165/165/165  36/36/36  15/15/15
f 22/22/22  20/20/20  17/17/17
f 56/56/56  18/18/18  21/21/21
f 25/25/25  22/22/22  17/17/17
f 58/58/58  18/18/18  56/56/56
f 89/89/89  18/18/18  58/58/58
f 93/93/93  19/19/19  90/90/90
f 164/164/164  19/19/19  93/93/93
f 166/166/166  19/19/19  164/164/164
f 56/56/56  21/21/21  23/23/23
f 54/54/54  24/24/24  26/26/26
f 56/56/56  23/23/23  53/53/53
f 111/111/111  54/54/54  26/26/26
f 114/114/114  111/111/111  26/26/26
f 44/44/44  30/30/30  27/27/27
f 88/88/88  29/29/29  32/32/32
f 46/46/46  44/44/44  27/27/27
f 48/48/48  46/46/46  27/27/27
f 50/50/50  48/48/48  27/27/27
f 59/59/59  50/50/50  27/27/27
f 94/94/94  60/60/60  28/28/28
f 101/101/101  28/28/28  87/87/87
f 96/96/96  94/94/94  28/28/28
f 99/99/99  96/96/96  28/28/28
f 101/101/101  99/99/99  28/28/28
f 42/42/42  33/33/33  30/30/30
f 152/152/152  31/31/31  34/34/34
f 44/44/44  42/42/42  30/30/30
f 88/88/88  32/32/32  85/85/85
f 170/170/170  85/85/85  32/32/32
f 152/152/152  150/150/150  31/31/31
f 167/167/167  31/31/31  150/150/150
f 170/170/170  32/32/32  168/168/168
f 39/39/39  35/35/35  33/33/33
f 162/162/162  34/34/34  36/36/36
f 42/42/42  39/39/39  33/33/33
f 155/155/155  152/152/152  34/34/34
f 157/157/157  155/155/155  34/34/34
f 160/160/160  157/157/157  34/34/34
f 162/162/162  160/160/160  34/34/34
f 39/39/39  37/37/37  35/35/35
f 165/165/165  162/162/162  36/36/36
f 121/121/121  43/43/43  45/45/45
f 121/121/121  118/118/118  43/43/43
f 128/128/128  45/45/45  47/47/47
f 123/123/123  121/121/121  45/45/45
f 126/126/126  123/123/123  45/45/45
f 128/128/128  126/126/126  45/45/45
f 133/133/133  47/47/47  49/49/49
f 131/131/131  128/128/128  47/47/47
f 133/133/133  131/131/131  47/47/47
f 140/140/140  49/49/49  51/51/51
f 135/135/135  133/133/133  49/49/49
f 137/137/137  135/135/135  49/49/49
f 140/140/140  137/137/137  49/49/49
f 55/55/55  52/52/52  50/50/50
f 111/111/111  51/51/51  54/54/54
f 57/57/57  55/55/55  50/50/50
f 59/59/59  57/57/57  50/50/50
f 145/145/145  51/51/51  111/111/111
f 142/142/142  140/140/140  51/51/51
f 145/145/145  142/142/142  51/51/51
f 89/89/89  58/58/58  60/60/60
f 91/91/91  89/89/89  60/60/60
f 94/94/94  91/91/91  60/60/60
f 109/109/109  64/64/64  61/61/61
f 187/187/187  62/62/62  65/65/65
f 110/110/110  63/63/63  107/107/107
f 190/190/190  107/107/107  63/63/63
f 184/184/184  182/182/182  62/62/62
f 189/189/189  62/62/62  182/182/182
f 187/187/187  184/184/184  62/62/62
f 109/109/109  67/67/67  64/64/64
f 186/186/186  66/66/66  68/68/68
f 188/188/188  66/66/66  186/186/186
f 109/109/109  69/69/69  67/67/67
f 186/186/186  68/68/68  71/71/71
f 109/109/109  72/72/72  69/69/69
f 181/181/181  70/70/70  73/73/73
f 185/185/185  70/70/70  181/181/181
f 109/109/109  74/74/74  72/72/72
f 181/181/181  73/73/73  76/76/76
f 106/106/106  77/77/77  74/74/74
f 176/176/176  75/75/75  78/78/78
f 109/109/109  106/106/106  74/74/74
f 180/180/180  75/75/75  176/176/176
f 106/106/106  79/79/79  77/77/77
f 176/176/176  78/78/78  81/81/81
f 106/106/106  82/82/82  79/79/79
f 171/171/171  80/80/80  83/83/83
f 175/175/175  80/80/80  171/171/171
f 106/106/106  84/84/84  82/82/82
f 171/171/171  83/83/83  86/86/86
f 104/104/104  87/87/87  84/84/84
f 106/106/106  104/104/104  84/84/84
f 104/104/104  101/101/101  87/87/87
f 98/98/98  92/92/92  95/95/95
f 159/159/159  92/92/92  98/98/98
f 161/161/161  92/92/92  159/159/159
f 163/163/163  92/92/92  161/161/161
f 103/103/103  97/97/97  100/100/100
f 154/154/154  97/97/97  103/103/103
f 156/156/156  97/97/97  154/154/154
f 158/158/158  97/97/97  156/156/156
f 108/108/108  102/102/102  105/105/105
f 149/149/149  102/102/102  108/108/108
f 151/151/151  102/102/102  149/149/149
f 153/153/153  102/102/102  151/151/151
f 190/190/190  148/148/148  107/107/107
f 119/119/119  112/112/112  117/117/117
f 146/146/146  113/113/113  120/120/120
f 124/124/124  120/120/120  122/122/122
f 143/143/143  120/120/120  124/124/124
f 146/146/146  120/120/120  143/143/143
f 129/129/129  125/125/125  127/127/127
f 138/138/138  125/125/125  129/129/129
f 141/141/141  125/125/125  138/138/138
f 144/144/144  125/125/125  141/141/141
f 134/134/134  130/130/130  132/132/132
f 136/136/136  130/130/130  134/134/134
f 139/139/139  130/130/130  136/136/136
f 169/169/169  150/150/150  147/147/147
f 172/172/172  169/169/169  147/147/147
f 189/189/189  172/172/172  147/147/147
f 169/169/169  167/167/167  150/150/150
f 175/175/175  171/171/171  173/173/173
f 189/189/189  174/174/174  172/172/172
f 180/180/180  176/176/176  178/178/178
f 189/189/189  177/177/177  174/174/174
f 189/189/189  179/179/179  177/177/177
f 185/185/185  181/181/181  183/183/183
f 189/189/189  182/182/182  179/179/179
